<svg width="33" height="32" viewBox="0 0 33 32" fill="none" xmlns="http://www.w3.org/2000/svg">
<mask id="mask0_836_121669" style="mask-type:alpha" maskUnits="userSpaceOnUse" x="0" y="0" width="33" height="32">
<rect x="0.5" width="32" height="32" fill="#FFC21C"/>
</mask>
<g mask="url(#mask0_836_121669)">
<path d="M7.98701 28C7.39034 28 6.88212 27.7902 6.46234 27.3707C6.04279 26.9509 5.83301 26.4427 5.83301 25.846V11.4873C5.83301 10.8907 6.04279 10.3824 6.46234 9.96267C6.88212 9.54311 7.39034 9.33333 7.98701 9.33333H11.1663C11.1663 7.84778 11.6839 6.58756 12.719 5.55267C13.7539 4.51756 15.0141 4 16.4997 4C17.9852 4 19.2455 4.51756 20.2803 5.55267C21.3155 6.58756 21.833 7.84778 21.833 9.33333H25.0123C25.609 9.33333 26.1172 9.54311 26.537 9.96267C26.9566 10.3824 27.1663 10.8907 27.1663 11.4873V25.846C27.1663 26.4427 26.9566 26.9509 26.537 27.3707C26.1172 27.7902 25.609 28 25.0123 28H7.98701ZM7.98701 26.6667H25.0123C25.2177 26.6667 25.4058 26.5812 25.5767 26.4103C25.7476 26.2394 25.833 26.0513 25.833 25.846V11.4873C25.833 11.282 25.7476 11.0939 25.5767 10.923C25.4058 10.7521 25.2177 10.6667 25.0123 10.6667H7.98701C7.78167 10.6667 7.59356 10.7521 7.42267 10.923C7.25179 11.0939 7.16634 11.282 7.16634 11.4873V25.846C7.16634 26.0513 7.25179 26.2394 7.42267 26.4103C7.59356 26.5812 7.78167 26.6667 7.98701 26.6667ZM16.4997 17.3333C17.9852 17.3333 19.2455 16.8158 20.2803 15.7807C21.3155 14.7458 21.833 13.4856 21.833 12H20.4997C20.4997 13.1111 20.1108 14.0556 19.333 14.8333C18.5552 15.6111 17.6108 16 16.4997 16C15.3886 16 14.4441 15.6111 13.6663 14.8333C12.8886 14.0556 12.4997 13.1111 12.4997 12H11.1663C11.1663 13.4856 11.6839 14.7458 12.719 15.7807C13.7539 16.8158 15.0141 17.3333 16.4997 17.3333ZM12.4997 9.33333H20.4997C20.4997 8.22222 20.1108 7.27778 19.333 6.5C18.5552 5.72222 17.6108 5.33333 16.4997 5.33333C15.3886 5.33333 14.4441 5.72222 13.6663 6.5C12.8886 7.27778 12.4997 8.22222 12.4997 9.33333Z" fill="#131313"/>
</g>
</svg>
