<svg width="33" height="32" viewBox="0 0 33 32" fill="none" xmlns="http://www.w3.org/2000/svg">
<mask id="mask0_836_121675" style="mask-type:alpha" maskUnits="userSpaceOnUse" x="0" y="0" width="33" height="32">
<rect x="0.5" width="32" height="32" fill="#FFC21C"/>
</mask>
<g mask="url(#mask0_836_121675)">
<path d="M11.3333 9.45633L14.8103 4.82833C15.0223 4.54322 15.274 4.33389 15.5653 4.20033C15.8569 4.06678 16.1684 4 16.5 4C16.8316 4 17.1431 4.06678 17.4347 4.20033C17.726 4.33389 17.9777 4.54322 18.1897 4.82833L21.6667 9.45633L27.0257 11.2793C27.5008 11.4402 27.8666 11.7096 28.123 12.0873C28.3794 12.4653 28.5077 12.8829 28.5077 13.34C28.5077 13.5509 28.4768 13.7603 28.415 13.9683C28.3532 14.1766 28.2517 14.376 28.1103 14.5667L24.5973 19.3307L24.7307 24.4383C24.7529 25.0648 24.5457 25.5928 24.109 26.0223C23.6723 26.4519 23.1642 26.6667 22.5847 26.6667C22.5916 26.6667 22.3898 26.6419 21.9793 26.5923L16.5 24.977L11.0207 26.5923C10.9096 26.6368 10.8023 26.6602 10.699 26.6627C10.5959 26.6653 10.5013 26.6667 10.4153 26.6667C9.824 26.6667 9.31289 26.4519 8.882 26.0223C8.45133 25.5928 8.24711 25.0648 8.26933 24.4383L8.40267 19.2973L4.89733 14.5667C4.756 14.3742 4.65444 14.173 4.59267 13.963C4.53089 13.7532 4.5 13.5433 4.5 13.3333C4.5 12.8833 4.63178 12.4648 4.89533 12.0777C5.15911 11.6906 5.52733 11.416 6 11.254L11.3333 9.45633ZM12.1717 10.6027L6.44867 12.5307C6.19222 12.6162 6.017 12.7914 5.923 13.0563C5.829 13.3214 5.86744 13.5651 6.03833 13.7873L9.76167 18.9077L9.60267 24.454C9.58556 24.7444 9.68811 24.9751 9.91033 25.146C10.1326 25.3171 10.3804 25.3599 10.654 25.2743L16.5 23.595L22.346 25.3077C22.6196 25.3932 22.8674 25.3504 23.0897 25.1793C23.3119 25.0084 23.4144 24.7778 23.3973 24.4873L23.2383 18.9077L26.9617 13.854C27.1326 13.6318 27.171 13.3881 27.077 13.123C26.983 12.8581 26.8078 12.6829 26.5513 12.5973L20.8283 10.6027L17.141 5.69233C16.9872 5.47011 16.7736 5.359 16.5 5.359C16.2264 5.359 16.0128 5.47011 15.859 5.69233L12.1717 10.6027Z" fill="#131313"/>
</g>
</svg>
