<svg width="32" height="32" viewBox="0 0 32 32" fill="none" xmlns="http://www.w3.org/2000/svg">
<mask id="mask0_836_123142" style="mask-type:alpha" maskUnits="userSpaceOnUse" x="0" y="0" width="32" height="32">
<rect width="32" height="32" fill="#D9D9D9"/>
</mask>
<g mask="url(#mask0_836_123142)">
<path d="M9.99967 22.0007H17.9997V20.6673H9.99967V22.0007ZM9.99967 16.6673H21.9997V15.334H9.99967V16.6673ZM9.99967 11.334H21.9997V10.0007H9.99967V11.334ZM7.48701 26.6673C6.87323 26.6673 6.36079 26.4618 5.94967 26.0507C5.53856 25.6395 5.33301 25.1271 5.33301 24.5133V7.48798C5.33301 6.87421 5.53856 6.36176 5.94967 5.95065C6.36079 5.53954 6.87323 5.33398 7.48701 5.33398H24.5123C25.1261 5.33398 25.6386 5.53954 26.0497 5.95065C26.4608 6.36176 26.6663 6.87421 26.6663 7.48798V24.5133C26.6663 25.1271 26.4608 25.6395 26.0497 26.0507C25.6386 26.4618 25.1261 26.6673 24.5123 26.6673H7.48701ZM7.48701 25.334H24.5123C24.7177 25.334 24.9058 25.2485 25.0767 25.0777C25.2476 24.9068 25.333 24.7187 25.333 24.5133V7.48798C25.333 7.28265 25.2476 7.09454 25.0767 6.92365C24.9058 6.75276 24.7177 6.66732 24.5123 6.66732H7.48701C7.28167 6.66732 7.09356 6.75276 6.92267 6.92365C6.75179 7.09454 6.66634 7.28265 6.66634 7.48798V24.5133C6.66634 24.7187 6.75179 24.9068 6.92267 25.0777C7.09356 25.2485 7.28167 25.334 7.48701 25.334Z" fill="#131313"/>
</g>
</svg>
