<svg width="33" height="32" viewBox="0 0 33 32" fill="none" xmlns="http://www.w3.org/2000/svg">
<mask id="mask0_836_121688" style="mask-type:alpha" maskUnits="userSpaceOnUse" x="0" y="0" width="33" height="32">
<rect x="0.5" width="32" height="32" fill="#FFC21C"/>
</mask>
<g mask="url(#mask0_836_121688)">
<path d="M8.76167 23.3127C9.895 22.4973 11.0976 21.8526 12.3693 21.3783C13.6411 20.9039 15.018 20.6667 16.5 20.6667C17.982 20.6667 19.3589 20.9039 20.6307 21.3783C21.9024 21.8526 23.105 22.4973 24.2383 23.3127C25.1188 22.4016 25.8269 21.3256 26.3627 20.0847C26.8987 18.8436 27.1667 17.482 27.1667 16C27.1667 13.0444 26.1278 10.5278 24.05 8.45C21.9722 6.37222 19.4556 5.33333 16.5 5.33333C13.5444 5.33333 11.0278 6.37222 8.95 8.45C6.87222 10.5278 5.83333 13.0444 5.83333 16C5.83333 17.482 6.10133 18.8436 6.63733 20.0847C7.17311 21.3256 7.88122 22.4016 8.76167 23.3127ZM16.5007 16.6667C15.3771 16.6667 14.4294 16.281 13.6577 15.5097C12.8859 14.7383 12.5 13.7909 12.5 12.6673C12.5 11.5438 12.8857 10.5961 13.657 9.82433C14.4283 9.05256 15.3758 8.66667 16.4993 8.66667C17.6229 8.66667 18.5706 9.05233 19.3423 9.82367C20.1141 10.595 20.5 11.5424 20.5 12.666C20.5 13.7896 20.1143 14.7372 19.343 15.509C18.5717 16.2808 17.6242 16.6667 16.5007 16.6667ZM16.5 28C14.8264 28 13.2598 27.6884 11.8 27.0653C10.3402 26.4422 9.07011 25.5906 7.98967 24.5103C6.90944 23.4299 6.05778 22.1598 5.43467 20.7C4.81156 19.2402 4.5 17.6736 4.5 16C4.5 14.3264 4.81156 12.7598 5.43467 11.3C6.05778 9.84022 6.90944 8.57011 7.98967 7.48967C9.07011 6.40944 10.3402 5.55778 11.8 4.93467C13.2598 4.31155 14.8264 4 16.5 4C18.1736 4 19.7402 4.31155 21.2 4.93467C22.6598 5.55778 23.9299 6.40944 25.0103 7.48967C26.0906 8.57011 26.9422 9.84022 27.5653 11.3C28.1884 12.7598 28.5 14.3264 28.5 16C28.5 17.6736 28.1884 19.2402 27.5653 20.7C26.9422 22.1598 26.0906 23.4299 25.0103 24.5103C23.9299 25.5906 22.6598 26.4422 21.2 27.0653C19.7402 27.6884 18.1736 28 16.5 28ZM16.5 26.6667C17.7291 26.6667 18.9386 26.4517 20.1283 26.0217C21.3179 25.5919 22.346 25.0034 23.2127 24.2563C22.346 23.5606 21.3434 23.0106 20.205 22.6063C19.0666 22.2021 17.8316 22 16.5 22C15.1684 22 13.9291 22.1979 12.782 22.5937C11.6351 22.9894 10.6369 23.5437 9.78733 24.2563C10.654 25.0034 11.6821 25.5919 12.8717 26.0217C14.0614 26.4517 15.2709 26.6667 16.5 26.6667ZM16.5 15.3333C17.2487 15.3333 17.8803 15.0761 18.395 14.5617C18.9094 14.047 19.1667 13.4153 19.1667 12.6667C19.1667 11.918 18.9094 11.2863 18.395 10.7717C17.8803 10.2572 17.2487 10 16.5 10C15.7513 10 15.1197 10.2572 14.605 10.7717C14.0906 11.2863 13.8333 11.918 13.8333 12.6667C13.8333 13.4153 14.0906 14.047 14.605 14.5617C15.1197 15.0761 15.7513 15.3333 16.5 15.3333Z" fill="#131313"/>
</g>
</svg>
