<svg width="33" height="32" viewBox="0 0 33 32" fill="none" xmlns="http://www.w3.org/2000/svg">
<mask id="mask0_836_121694" style="mask-type:alpha" maskUnits="userSpaceOnUse" x="0" y="0" width="33" height="32">
<rect x="0.5" width="32" height="32" fill="#FFC21C"/>
</mask>
<g mask="url(#mask0_836_121694)">
<path d="M14.0128 28L13.5308 24.1437C13.1052 24.0154 12.645 23.8137 12.1501 23.5383C11.6552 23.2632 11.2343 22.9684 10.8874 22.654L7.33075 24.1667L4.84375 19.8333L7.91808 17.5153C7.87875 17.2744 7.84631 17.0262 7.82075 16.7707C7.79497 16.5151 7.78208 16.2668 7.78208 16.0257C7.78208 15.8017 7.79497 15.5662 7.82075 15.3193C7.84631 15.0722 7.87875 14.794 7.91808 14.4847L4.84375 12.1667L7.33075 7.88467L10.8618 9.37167C11.26 9.04011 11.6908 8.741 12.1541 8.47433C12.6172 8.20767 13.0675 8.00167 13.5051 7.85633L14.0128 4H18.9874L19.4694 7.882C19.9805 8.06156 20.4322 8.26756 20.8244 8.5C21.2166 8.73244 21.6205 9.023 22.0361 9.37167L25.6694 7.88467L28.1564 12.1667L24.9794 14.5617C25.053 14.8368 25.0941 15.0893 25.1028 15.3193C25.1112 15.5491 25.1154 15.776 25.1154 16C25.1154 16.2069 25.1069 16.4252 25.0898 16.655C25.0726 16.885 25.0333 17.1632 24.9718 17.4897L28.0974 19.8333L25.6104 24.1667L22.0361 22.6283C21.6205 22.977 21.2025 23.2761 20.7821 23.5257C20.3616 23.7752 19.9241 23.9727 19.4694 24.118L18.9874 28H14.0128ZM15.1667 26.6667H17.7744L18.2668 23.0563C18.9385 22.8786 19.5432 22.6346 20.0807 22.3243C20.6185 22.0141 21.166 21.5889 21.7231 21.0487L25.0488 22.4667L26.3744 20.2L23.4564 18.0077C23.5675 17.6281 23.6411 17.279 23.6771 16.9603C23.7129 16.6414 23.7308 16.3213 23.7308 16C23.7308 15.6616 23.7129 15.3414 23.6771 15.0397C23.6411 14.7381 23.5675 14.4061 23.4564 14.0437L26.4258 11.8L25.1001 9.53333L21.6974 10.959C21.2941 10.5163 20.7638 10.1013 20.1064 9.714C19.4493 9.32689 18.8275 9.07011 18.2411 8.94367L17.8334 5.33333H15.1744L14.7591 8.918C14.0873 9.06155 13.4698 9.29278 12.9064 9.61167C12.3433 9.93033 11.7831 10.3683 11.2257 10.9257L7.90008 9.53333L6.57442 11.8L9.46675 13.959C9.35564 14.2581 9.27786 14.5829 9.23342 14.9333C9.18897 15.2838 9.16675 15.6479 9.16675 16.0257C9.16675 16.3641 9.18897 16.7 9.23342 17.0333C9.27786 17.3667 9.34708 17.6914 9.44108 18.0077L6.57442 20.2L7.90008 22.4667L11.2001 21.0667C11.7232 21.5949 12.2663 22.0184 12.8294 22.3373C13.3928 22.656 14.0274 22.9042 14.7334 23.082L15.1667 26.6667ZM16.4641 19.3333C17.3941 19.3333 18.1822 19.0102 18.8284 18.364C19.4744 17.718 19.7974 16.93 19.7974 16C19.7974 15.07 19.4744 14.282 18.8284 13.636C18.1822 12.9898 17.3941 12.6667 16.4641 12.6667C15.5292 12.6667 14.7399 12.9898 14.0961 13.636C13.4525 14.282 13.1308 15.07 13.1308 16C13.1308 16.93 13.4525 17.718 14.0961 18.364C14.7399 19.0102 15.5292 19.3333 16.4641 19.3333Z" fill="#131313"/>
</g>
</svg>
