<svg width="14" height="14" viewBox="0 0 14 14" fill="none" xmlns="http://www.w3.org/2000/svg">
<path d="M1.68023 13.6673C1.29662 13.6673 0.976345 13.5388 0.719401 13.2819C0.462457 13.025 0.333984 12.7047 0.333984 12.3211V1.68023C0.333984 1.29662 0.462457 0.976345 0.719401 0.719401C0.976345 0.462457 1.29662 0.333984 1.68023 0.333984H12.3211C12.7047 0.333984 13.025 0.462457 13.2819 0.719401C13.5388 0.976345 13.6673 1.29662 13.6673 1.68023V12.3211C13.6673 12.7047 13.5388 13.025 13.2819 13.2819C13.025 13.5388 12.7047 13.6673 12.3211 13.6673H1.68023ZM1.68023 12.834H12.3211C12.4494 12.834 12.567 12.7806 12.6738 12.6738C12.7806 12.567 12.834 12.4494 12.834 12.3211V1.68023C12.834 1.5519 12.7806 1.43433 12.6738 1.32753C12.567 1.22072 12.4494 1.16732 12.3211 1.16732H1.68023C1.5519 1.16732 1.43433 1.22072 1.32753 1.32753C1.22072 1.43433 1.16732 1.5519 1.16732 1.68023V12.3211C1.16732 12.4494 1.22072 12.567 1.32753 12.6738C1.43433 12.7806 1.5519 12.834 1.68023 12.834Z" fill="#FDC21D"/>
</svg>
