<svg width="14" height="14" viewBox="0 0 14 14" fill="none" xmlns="http://www.w3.org/2000/svg">
<path d="M5.83398 9.92378L11.1642 4.59357L10.5744 4.00378L5.83398 8.74419L3.45898 6.36919L2.86919 6.95898L5.83398 9.92378ZM1.68023 13.6673C1.29662 13.6673 0.976345 13.5388 0.719401 13.2819C0.462457 13.025 0.333984 12.7047 0.333984 12.3211V1.68023C0.333984 1.29662 0.462457 0.976345 0.719401 0.719401C0.976345 0.462457 1.29662 0.333984 1.68023 0.333984H12.3211C12.7047 0.333984 13.025 0.462457 13.2819 0.719401C13.5388 0.976345 13.6673 1.29662 13.6673 1.68023V12.3211C13.6673 12.7047 13.5388 13.025 13.2819 13.2819C13.025 13.5388 12.7047 13.6673 12.3211 13.6673H1.68023Z" fill="#FFC21C"/>
</svg>
