<svg width="24" height="24" viewBox="0 0 24 24" fill="none" xmlns="http://www.w3.org/2000/svg">
<rect width="24" height="24" rx="12" fill="#003FEE"/>
<mask id="mask0_834_45928" style="mask-type:alpha" maskUnits="userSpaceOnUse" x="5" y="5" width="14" height="14">
<rect x="5" y="5" width="14" height="14" fill="#D9D9D9"/>
</mask>
<g mask="url(#mask0_834_45928)">
<path d="M10.5693 13.8375L15.513 8.89375C15.6297 8.77708 15.7658 8.71875 15.9214 8.71875C16.0769 8.71875 16.213 8.77708 16.3297 8.89375C16.4464 9.01042 16.5047 9.14896 16.5047 9.30937C16.5047 9.46979 16.4464 9.60833 16.3297 9.725L10.9776 15.0917C10.861 15.2083 10.7248 15.2667 10.5693 15.2667C10.4137 15.2667 10.2776 15.2083 10.161 15.0917L7.65262 12.5833C7.53595 12.4667 7.48005 12.3281 7.48491 12.1677C7.48977 12.0073 7.55054 11.8688 7.6672 11.7521C7.78387 11.6354 7.92241 11.5771 8.08283 11.5771C8.24324 11.5771 8.38179 11.6354 8.49845 11.7521L10.5693 13.8375Z" fill="white"/>
</g>
</svg>
