<svg width="9" height="10" viewBox="0 0 9 10" fill="none" xmlns="http://www.w3.org/2000/svg">
<path d="M4.21053 5.69943L0.843698 9.06642C0.751779 9.15823 0.636244 9.20524 0.497093 9.20745C0.358053 9.20955 0.240417 9.16254 0.144184 9.06642C0.0480612 8.97019 0 8.8536 0 8.71666C0 8.57972 0.0480612 8.46314 0.144184 8.3669L3.51118 5.00008L0.144184 1.63325C0.0523751 1.54133 0.00536475 1.4258 0.0031525 1.28664C0.00105086 1.1476 0.0480612 1.02997 0.144184 0.933734C0.240417 0.837612 0.357002 0.789551 0.493941 0.789551C0.630879 0.789551 0.747465 0.837612 0.843698 0.933734L4.21053 4.30073L7.57735 0.933734C7.66927 0.841926 7.78481 0.794916 7.92396 0.792703C8.063 0.790602 8.18064 0.837612 8.27687 0.933734C8.37299 1.02997 8.42105 1.14655 8.42105 1.28349C8.42105 1.42043 8.37299 1.53702 8.27687 1.63325L4.90987 5.00008L8.27687 8.3669C8.36868 8.45882 8.41569 8.57436 8.4179 8.71351C8.42 8.85255 8.37299 8.97019 8.27687 9.06642C8.18064 9.16254 8.06405 9.2106 7.92711 9.2106C7.79017 9.2106 7.67359 9.16254 7.57735 9.06642L4.21053 5.69943Z" fill="#131313" fill-opacity="0.6"/>
</svg>
