<svg width="21" height="20" viewBox="0 0 21 20" fill="none" xmlns="http://www.w3.org/2000/svg">
<mask id="mask0_836_119334" style="mask-type:alpha" maskUnits="userSpaceOnUse" x="0" y="0" width="21" height="20">
<rect x="0.210938" width="20" height="20" fill="#D9D9D9"/>
</mask>
<g mask="url(#mask0_836_119334)">
<path d="M10.2104 10.8737L6.00189 15.0824C5.88699 15.1972 5.74257 15.2559 5.56863 15.2587C5.39483 15.2613 5.24779 15.2026 5.1275 15.0824C5.00734 14.9621 4.94727 14.8164 4.94727 14.6452C4.94727 14.474 5.00734 14.3283 5.1275 14.208L9.33624 9.99949L5.1275 5.79095C5.01273 5.67605 4.95397 5.53163 4.95121 5.3577C4.94858 5.18389 5.00734 5.03685 5.1275 4.91656C5.24779 4.7964 5.39352 4.73633 5.56469 4.73633C5.73586 4.73633 5.8816 4.7964 6.00189 4.91656L10.2104 9.1253L14.419 4.91656C14.5339 4.8018 14.6783 4.74303 14.8522 4.74027C15.026 4.73764 15.1731 4.7964 15.2934 4.91656C15.4135 5.03685 15.4736 5.18258 15.4736 5.35375C15.4736 5.52493 15.4135 5.67066 15.2934 5.79095L11.0846 9.99949L15.2934 14.208C15.4081 14.3229 15.4669 14.4673 15.4696 14.6413C15.4723 14.8151 15.4135 14.9621 15.2934 15.0824C15.1731 15.2026 15.0273 15.2626 14.8562 15.2626C14.685 15.2626 14.5392 15.2026 14.419 15.0824L10.2104 10.8737Z" fill="#131313"/>
</g>
</svg>
