<svg width="33" height="32" viewBox="0 0 33 32" fill="none" xmlns="http://www.w3.org/2000/svg">
<mask id="mask0_836_120482" style="mask-type:alpha" maskUnits="userSpaceOnUse" x="0" y="0" width="33" height="32">
<rect x="0.210938" width="32" height="32" fill="#D9D9D9"/>
</mask>
<g mask="url(#mask0_836_120482)">
<path d="M28.2109 8.82002V23.1787C28.2109 23.7925 28.0054 24.3049 27.5943 24.716C27.1832 25.1271 26.6707 25.3327 26.0569 25.3327H6.36494C5.75116 25.3327 5.23872 25.1271 4.8276 24.716C4.41649 24.3049 4.21094 23.7925 4.21094 23.1787V8.82002C4.21094 8.20624 4.41649 7.69379 4.8276 7.28268C5.23872 6.87157 5.75116 6.66602 6.36494 6.66602H26.0569C26.6707 6.66602 27.1832 6.87157 27.5943 7.28268C28.0054 7.69379 28.2109 8.20624 28.2109 8.82002ZM5.54427 11.743H26.8776V8.82002C26.8776 8.61468 26.7922 8.42657 26.6213 8.25568C26.4504 8.08479 26.2623 7.99935 26.0569 7.99935H6.36494C6.1596 7.99935 5.97149 8.08479 5.8006 8.25568C5.62972 8.42657 5.54427 8.61468 5.54427 8.82002V11.743ZM5.54427 14.9223V23.1787C5.54427 23.384 5.62972 23.5721 5.8006 23.743C5.97149 23.9139 6.1596 23.9993 6.36494 23.9993H26.0569C26.2623 23.9993 26.4504 23.9139 26.6213 23.743C26.7922 23.5721 26.8776 23.384 26.8776 23.1787V14.9223H5.54427Z" fill="#131313"/>
</g>
</svg>
