<svg width="33" height="32" viewBox="0 0 33 32" fill="none" xmlns="http://www.w3.org/2000/svg">
<mask id="mask0_836_120495" style="mask-type:alpha" maskUnits="userSpaceOnUse" x="0" y="0" width="33" height="32">
<rect x="0.210938" width="32" height="32" fill="#D9D9D9"/>
</mask>
<g mask="url(#mask0_836_120495)">
<path d="M11.7183 26.6673C10.0038 26.6673 8.54617 26.0669 7.34528 24.866C6.14439 23.6651 5.54395 22.2074 5.54395 20.493C5.54395 19.7681 5.66706 19.0655 5.91328 18.3853C6.15928 17.7049 6.51483 17.0852 6.97995 16.5263L11.6619 10.9033L8.88995 5.33398H23.5313L20.7593 10.9033L25.4413 16.5263C25.9064 17.0852 26.2619 17.7049 26.5079 18.3853C26.7542 19.0655 26.8773 19.7681 26.8773 20.493C26.8773 22.2074 26.2756 23.6651 25.0723 24.866C23.8687 26.0669 22.4123 26.6673 20.7029 26.6673H11.7183ZM16.2106 20.6417C15.6139 20.6417 15.1058 20.4319 14.6863 20.0123C14.2665 19.5925 14.0566 19.0844 14.0566 18.488C14.0566 17.8913 14.2665 17.3831 14.6863 16.9633C15.1058 16.5438 15.6139 16.334 16.2106 16.334C16.8073 16.334 17.3154 16.5438 17.7349 16.9633C18.1547 17.3831 18.3646 17.8913 18.3646 18.488C18.3646 19.0844 18.1547 19.5925 17.7349 20.0123C17.3154 20.4319 16.8073 20.6417 16.2106 20.6417ZM12.8899 10.334H19.5566L21.3773 6.66732H11.0439L12.8899 10.334ZM11.7183 25.334H20.7029C22.0552 25.334 23.2001 24.8609 24.1376 23.9147C25.0752 22.9687 25.5439 21.8281 25.5439 20.493C25.5439 19.9254 25.4495 19.3745 25.2606 18.8403C25.0717 18.3061 24.7935 17.822 24.4259 17.388L19.6543 11.6673H12.8003L8.02095 17.38C7.65339 17.8142 7.37083 18.2998 7.17328 18.8367C6.97595 19.3733 6.87728 19.9254 6.87728 20.493C6.87728 21.8281 7.35039 22.9687 8.29661 23.9147C9.24261 24.8609 10.3832 25.334 11.7183 25.334Z" fill="#131313" fill-opacity="0.6"/>
</g>
</svg>
