<svg width="21" height="20" viewBox="0 0 21 20" fill="none" xmlns="http://www.w3.org/2000/svg">
<mask id="mask0_836_119412" style="mask-type:alpha" maskUnits="userSpaceOnUse" x="0" y="0" width="21" height="20">
<rect x="0.210938" width="20" height="20" fill="#D9D9D9"/>
</mask>
<g mask="url(#mask0_836_119412)">
<path d="M3.96094 15.7377V14.4879H5.4674V8.26982C5.4674 7.14912 5.8133 6.15822 6.5051 5.29711C7.19677 4.436 8.08483 3.88523 9.16927 3.64482V3.12565C9.16927 2.83635 9.27045 2.59037 9.47281 2.38773C9.67517 2.18523 9.92087 2.08398 10.2099 2.08398C10.4991 2.08398 10.7451 2.18523 10.948 2.38773C11.1511 2.59037 11.2526 2.83635 11.2526 3.12565V3.64482C12.337 3.88523 13.2251 4.436 13.9168 5.29711C14.6086 6.15822 14.9545 7.14912 14.9545 8.26982V14.4879H16.4609V15.7377H3.96094ZM10.2095 18.0775C9.7949 18.0775 9.44045 17.93 9.14615 17.635C8.8517 17.34 8.70448 16.9854 8.70448 16.5711H11.7174C11.7174 16.9868 11.5698 17.3418 11.2745 17.6361C10.9792 17.9304 10.6242 18.0775 10.2095 18.0775ZM6.7174 14.4879H13.7045V8.26982C13.7045 7.3051 13.3634 6.48169 12.6814 5.79961C11.9991 5.11739 11.1757 4.77628 10.2109 4.77628C9.24622 4.77628 8.42274 5.11739 7.74052 5.79961C7.05844 6.48169 6.7174 7.3051 6.7174 8.26982V14.4879Z" fill="#131313"/>
</g>
</svg>
