<svg width="25" height="24" viewBox="0 0 25 24" fill="none" xmlns="http://www.w3.org/2000/svg">
<path d="M0.710938 5.38467V0H6.0956V1.33333H2.04427V5.38467H0.710938ZM0.710938 24V18.6153H2.04427V22.6667H6.0956V24H0.710938ZM19.3263 24V22.6667H23.3776V18.6153H24.7109V24H19.3263ZM23.3776 5.38467V1.33333H19.3263V0H24.7109V5.38467H23.3776ZM19.3006 18.5897H20.9159V20.205H19.3006V18.5897ZM19.3006 15.359H20.9159V16.9743H19.3006V15.359ZM17.6853 16.9743H19.3006V18.5897H17.6853V16.9743ZM16.0699 18.5897H17.6853V20.205H16.0699V18.5897ZM14.4546 16.9743H16.0699V18.5897H14.4546V16.9743ZM17.6853 13.7437H19.3006V15.359H17.6853V13.7437ZM16.0699 15.359H17.6853V16.9743H16.0699V15.359ZM14.4546 13.7437H16.0699V15.359H14.4546V13.7437ZM20.9159 3.795V10.2563H14.4546V3.795H20.9159ZM10.9673 13.7437V20.205H4.50594V13.7437H10.9673ZM10.9673 3.795V10.2563H4.50594V3.795H10.9673ZM9.78794 19.0257V14.923H5.68527V19.0257H9.78794ZM9.78794 9.077V4.97433H5.68527V9.077H9.78794ZM19.7366 9.077V4.97433H15.6339V9.077H19.7366Z" fill="#131313" fill-opacity="0.6"/>
</svg>
