<svg width="43" height="42" viewBox="0 0 43 42" fill="none" xmlns="http://www.w3.org/2000/svg">
<g clip-path="url(#clip0_836_120215)">
<rect x="42.2109" width="42" height="42" rx="21" transform="rotate(90 42.2109 0)" fill="#A9D1FF"/>
<path d="M12.8119 12.1797L29.6119 12.1797L31.5019 17.8497L29.6119 19.3197L12.8119 19.3197L10.9219 17.6397L12.8119 12.1797Z" fill="white"/>
<path d="M13.5065 30.5205C12.9909 30.5205 12.5604 30.3478 12.2151 30.0025C11.8698 29.6571 11.6971 29.2267 11.6971 28.7111L11.6971 19.7211C11.2247 19.3723 10.8789 18.9149 10.66 18.3491C10.441 17.7834 10.4364 17.1796 10.646 16.5378L11.736 12.9451C11.8854 12.4886 12.1262 12.1303 12.4584 11.8702C12.7909 11.6104 13.2019 11.4805 13.6915 11.4805L28.6995 11.4805C29.1892 11.4805 29.5991 11.6022 29.9293 11.8456C30.2597 12.089 30.5017 12.4411 30.6553 12.902L31.7882 16.5378C31.9979 17.1796 31.9932 17.7884 31.7742 18.3643C31.5553 18.9399 31.2096 19.4066 30.7371 19.7643L30.7371 28.7111C30.7371 29.2267 30.5644 29.6571 30.2191 30.0025C29.8738 30.3478 29.4434 30.5205 28.928 30.5205L13.5065 30.5205ZM23.6811 19.3205C24.4005 19.3205 24.9376 19.1191 25.2922 18.7162C25.6469 18.3136 25.7962 17.8976 25.7402 17.4683L24.9949 12.6005L21.7771 12.6005L21.7771 17.3045C21.7771 17.8544 21.9652 18.3279 22.3413 18.7249C22.7176 19.1219 23.1642 19.3205 23.6811 19.3205ZM18.6411 19.3205C19.2427 19.3205 19.7292 19.1219 20.1005 18.7249C20.4716 18.3279 20.6571 17.8544 20.6571 17.3045L20.6571 12.6005L17.4393 12.6005L16.694 17.5542C16.6481 17.9018 16.7999 18.2831 17.1495 18.698C17.4992 19.113 17.9964 19.3205 18.6411 19.3205ZM13.6571 19.3205C14.151 19.3205 14.5707 19.1525 14.916 18.8165C15.2613 18.4805 15.4764 18.0612 15.5611 17.5587L16.2633 12.6005L13.6915 12.6005C13.4474 12.6005 13.2535 12.6543 13.11 12.762C12.9664 12.8697 12.8587 13.0313 12.7869 13.2467L11.7531 16.7831C11.5692 17.3719 11.6478 17.9419 11.9889 18.4933C12.3299 19.0448 12.886 19.3205 13.6571 19.3205ZM28.7771 19.3205C29.4476 19.3205 29.9833 19.0591 30.384 18.5365C30.7846 18.0138 30.8836 17.4293 30.6811 16.7831L29.5913 13.2036C29.5195 12.9882 29.4118 12.8338 29.2682 12.7405C29.1247 12.6471 28.9308 12.6005 28.6867 12.6005L26.1709 12.6005L26.8731 17.5587C26.9579 18.0612 27.1729 18.4805 27.5182 18.8165C27.8636 19.1525 28.2832 19.3205 28.7771 19.3205Z" fill="#2879F5"/>
<mask id="mask0_836_120215" style="mask-type:alpha" maskUnits="userSpaceOnUse" x="0" y="0" width="43" height="42">
<rect x="0.210938" width="42" height="42" fill="#D9D9D9"/>
</mask>
<g mask="url(#mask0_836_120215)">
</g>
</g>
<defs>
<clipPath id="clip0_836_120215">
<rect x="42.2109" width="42" height="42" rx="21" transform="rotate(90 42.2109 0)" fill="white"/>
</clipPath>
</defs>
</svg>
