<svg width="33" height="32" viewBox="0 0 33 32" fill="none" xmlns="http://www.w3.org/2000/svg">
<mask id="mask0_836_120625" style="mask-type:alpha" maskUnits="userSpaceOnUse" x="0" y="0" width="33" height="32">
<rect x="0.210938" width="32" height="32" fill="#D9D9D9"/>
</mask>
<g mask="url(#mask0_836_120625)">
<path d="M9.18545 25.3591L10.9804 20.8974C11.0949 20.6428 11.2676 20.4339 11.4984 20.2708C11.7291 20.1074 11.9854 20.0258 12.2674 20.0258H15.5444V13.6078C12.5033 13.548 9.95245 13.1677 7.89178 12.4668C5.83111 11.7659 4.80078 10.9437 4.80078 10.0001C4.80078 8.98477 5.90423 8.12832 8.11111 7.43077C10.318 6.73343 13.018 6.38477 16.2111 6.38477C19.4093 6.38477 22.1107 6.73343 24.3151 7.43077C26.5193 8.12832 27.6214 8.98477 27.6214 10.0001C27.6214 10.9608 26.5868 11.7872 24.5174 12.4794C22.4483 13.1719 19.9018 13.548 16.8778 13.6078V20.0258H20.1548C20.4317 20.0258 20.6868 20.1074 20.9201 20.2708C21.1534 20.4339 21.3273 20.6428 21.4418 20.8974L23.2368 25.3591H21.8521L20.2521 21.3591H12.1701L10.5701 25.3591H9.18545ZM16.2111 12.2821C18.606 12.2821 20.7632 12.059 22.6828 11.6128C24.6026 11.1668 25.7761 10.6292 26.2034 10.0001C25.7761 9.37099 24.6026 8.83343 22.6828 8.38743C20.7632 7.94121 18.606 7.7181 16.2111 7.7181C13.8162 7.7181 11.659 7.94121 9.73945 8.38743C7.81967 8.83343 6.64611 9.37099 6.21878 10.0001C6.64611 10.6292 7.81967 11.1668 9.73945 11.6128C11.659 12.059 13.8162 12.2821 16.2111 12.2821Z" fill="#1C1B1F"/>
</g>
</svg>
