<svg width="33" height="32" viewBox="0 0 33 32" fill="none" xmlns="http://www.w3.org/2000/svg">
<mask id="mask0_836_120501" style="mask-type:alpha" maskUnits="userSpaceOnUse" x="0" y="0" width="33" height="32">
<rect x="0.710938" width="32" height="32" fill="#D9D9D9"/>
</mask>
<g mask="url(#mask0_836_120501)">
<path d="M8.71094 25.3327C7.60316 25.3327 6.6596 24.9429 5.88027 24.1633C5.10072 23.384 4.71094 22.4405 4.71094 21.3327V10.666C4.71094 9.55824 5.10072 8.61468 5.88027 7.83535C6.6596 7.05579 7.60316 6.66602 8.71094 6.66602H24.7109C25.8187 6.66602 26.7623 7.05579 27.5416 7.83535C28.3212 8.61468 28.7109 9.55824 28.7109 10.666V21.3327C28.7109 22.4405 28.3212 23.384 27.5416 24.1633C26.7623 24.9429 25.8187 25.3327 24.7109 25.3327H8.71094ZM8.71094 11.3327H24.7109C25.234 11.3327 25.722 11.4225 26.1749 11.602C26.628 11.7813 27.0289 12.0446 27.3776 12.3917V10.666C27.3776 9.93268 27.1165 9.3049 26.5943 8.78268C26.0721 8.26046 25.4443 7.99935 24.7109 7.99935H8.71094C7.9776 7.99935 7.34983 8.26046 6.8276 8.78268C6.30538 9.3049 6.04427 9.93268 6.04427 10.666V12.3917C6.39294 12.0446 6.79383 11.7813 7.24694 11.602C7.69983 11.4225 8.18783 11.3327 8.71094 11.3327ZM6.09027 14.9737L21.2059 18.6507C21.3717 18.6951 21.5417 18.6993 21.7159 18.6633C21.8904 18.6276 22.0408 18.5516 22.1673 18.4353L27.1339 14.2353C26.9408 13.7651 26.6255 13.386 26.1879 13.098C25.7504 12.81 25.258 12.666 24.7109 12.666H8.71094C8.03049 12.666 7.44372 12.8843 6.9506 13.321C6.45749 13.7579 6.17072 14.3088 6.09027 14.9737Z" fill="#131313" fill-opacity="0.6"/>
</g>
</svg>
